<?xml version="1.0" encoding="UTF-8"?>
<svg width="512" height="512" viewBox="0 0 512 512" xmlns="http://www.w3.org/2000/svg">
  <!-- Solid green rounded square background -->
  <rect x="32" y="32" width="448" height="448" rx="64" fill="#10B981"/>

  <!-- Scaled QR icon: 24px → 352px (scale ~14.6667) -->
  <!-- Centered at (256,256) -->
  <g transform="translate(80,80) scale(14.6667)" 
     stroke="#ffffff" fill="none" stroke-width="2" 
     stroke-linecap="round" stroke-linejoin="round">

    <rect width="5" height="5" x="3" y="3" rx="1"/>
    <rect width="5" height="5" x="16" y="3" rx="1"/>
    <rect width="5" height="5" x="3" y="16" rx="1"/>
    <path d="M21 16h-3a2 2 0 0 0-2 2v3"/>
    <path d="M21 21v.01"/>
    <path d="M12 7v3a2 2 0 0 1-2 2H7"/>
    <path d="M3 12h.01"/>
    <path d="M12 3h.01"/>
    <path d="M12 16v.01"/>
    <path d="M16 12h1"/>
    <path d="M21 12v.01"/>
    <path d="M12 21v-1"/>

  </g>
</svg>
